<svg width="118" height="121" viewBox="0 0 118 121" fill="none" xmlns="http://www.w3.org/2000/svg">
<path fill-rule="evenodd" clip-rule="evenodd" d="M36.6759 46.2351C48.2847 38.2882 58.5115 20.8546 70.2767 31.1942C83.582 42.8874 84.9441 66.5999 78.8675 82.8447C73.35 97.5951 58.5043 103.952 43.9832 101.486C29.5786 99.0398 16.0102 88.173 13.349 71.6669C11.0966 57.6965 26.6672 53.0867 36.6759 46.2351Z" fill="#F1F4E7"/>
<path fill-rule="evenodd" clip-rule="evenodd" d="M46.2125 38.4003C58.8952 29.7183 70.068 10.672 82.9215 21.9681C97.4577 34.7429 98.9457 60.6489 92.3071 78.3963C86.2791 94.5112 70.0602 101.456 54.1959 98.762C38.4588 96.0896 23.6352 84.2176 20.7278 66.1846C18.2671 50.9219 35.278 45.8856 46.2125 38.4003Z" stroke="#FEA439" stroke-width="2"/>
<g clip-path="url(#clip0_101_158)">
<path d="M75.5929 43.5042C75.6637 44.2908 75.7672 45.073 75.9032 45.851C75.9169 45.9544 75.879 46.0183 75.6769 46.0946C75.4562 46.1795 75.1048 46.2291 74.8548 46.2436C74.5262 46.2654 74.1753 46.2684 73.8835 46.2172C73.7073 46.1878 73.389 46.137 73.3749 46.0305C73.2251 45.1986 73.114 44.3586 73.0424 43.5164C73.0303 43.4251 73.381 43.3199 73.5097 43.2904C73.7988 43.2212 74.1661 43.1912 74.451 43.1907C74.922 43.1935 75.577 43.2338 75.5986 43.4973L75.5929 43.5042Z" fill="#FFB154"/>
<path d="M59.6021 45.1477L59.9741 47.4468C59.9879 47.5506 59.953 47.6142 59.7653 47.6887C59.5602 47.7718 59.2329 47.8182 58.9998 47.8303C58.6936 47.8491 58.3663 47.8489 58.0936 47.7949C57.9351 47.7631 57.6317 47.71 57.6175 47.6032L57.2455 45.3041C57.2318 45.2003 57.2666 45.1367 57.4543 45.0621C57.6595 44.9791 57.9868 44.9327 58.2198 44.9205C58.5261 44.9017 58.8534 44.9019 59.126 44.956C59.2846 44.9878 59.588 45.0409 59.6021 45.1477Z" fill="#FFB154"/>
<path d="M84.4192 60.5168C81.4822 65.5761 76.6854 68.8123 71.4522 70.0912C66.219 71.3701 60.0974 70.3732 54.929 67.7524C51.9636 66.2453 49.2417 64.2042 46.7845 61.7885C46.2498 61.257 47.0514 60.8113 47.432 60.7455C48.1183 60.6161 48.8864 60.8465 49.4201 61.3704C53.1196 65.0193 57.6946 67.7494 62.5249 68.6393C67.3551 69.5291 71.9737 68.509 75.9588 65.7971C78.2586 64.2345 80.2033 62.1552 81.679 59.6285C82.2026 58.7331 85.016 59.5037 84.4259 60.5159L84.4192 60.5168Z" fill="#FFB154"/>
</g>
<path d="M46.1543 16.6298C46.1543 18.2629 47.6375 20.3799 51.6731 22.1683C55.5921 23.905 61.4621 25.0906 69.0272 25.0906C76.5889 25.0906 83.3804 23.9061 88.2302 22.131C90.6618 21.241 92.5306 20.2296 93.7622 19.2041C95.0159 18.1602 95.4135 17.276 95.4135 16.6298C95.4135 16.0609 95.1018 15.3893 93.9207 14.6429C92.7277 13.889 90.885 13.2281 88.4286 12.6967C83.5401 11.6392 76.6956 11.1904 69.0272 11.1904C61.3467 11.1904 55.4163 11.6417 51.4454 12.6817C49.4565 13.2026 48.0924 13.8386 47.2509 14.5323C46.4624 15.1823 46.1543 15.8553 46.1543 16.6298Z" stroke="#FEA439" stroke-width="3"/>
<path d="M35.696 16.3423L31.1247 17.5569" stroke="#FEA439" stroke-width="3" stroke-linecap="round"/>
<path d="M44.6543 6.55322L44.5851 1.82381" stroke="#FEA439" stroke-width="3" stroke-linecap="round"/>
<path d="M38.4374 9.91797L35.1128 6.55357" stroke="#FEA439" stroke-width="3" stroke-linecap="round"/>
<defs>
<clipPath id="clip0_101_158">
<rect width="37.7338" height="26.8037" fill="white" transform="matrix(-0.991367 0.131117 0.131117 0.991367 82.0624 41.7661)"/>
</clipPath>
</defs>
</svg>
