<svg width="136" height="138" viewBox="0 0 136 138" fill="none" xmlns="http://www.w3.org/2000/svg">
<path fill-rule="evenodd" clip-rule="evenodd" d="M102.501 28.9242C89.6508 22.4165 76.9303 6.09427 66.3766 18.1684C54.4414 31.8231 56.2422 56.0742 64.5906 71.7469C72.1711 85.9779 88.0928 90.4371 102.501 85.9848C116.793 81.5683 129.106 68.717 129.591 51.606C130.002 37.1237 113.579 34.535 102.501 28.9242Z" fill="#F4E7E7"/>
<path fill-rule="evenodd" clip-rule="evenodd" d="M91.7693 22.2522C77.7309 15.1425 63.8336 -2.68957 52.3037 10.5014C39.2644 25.4192 41.2318 51.9136 50.3525 69.0361C58.6342 84.5835 76.0287 89.4552 91.7693 84.5911C107.384 79.766 120.836 65.726 121.366 47.0322C121.815 31.2102 103.873 28.382 91.7693 22.2522Z" stroke="#FE6788" stroke-width="2"/>
<g clip-path="url(#clip0_101_112)">
<path d="M66.9665 32.1422C67.0012 34.1561 67.0012 36.1701 66.9665 38.184C66.9665 38.4504 67.015 38.5993 67.2368 38.7247C67.4795 38.8658 67.8538 38.8736 68.1172 38.8266C68.4639 38.7717 68.8313 38.662 69.1294 38.4348C69.3096 38.3015 69.6354 38.0665 69.6354 37.7922C69.677 35.6372 69.677 33.4744 69.6354 31.3194C69.6354 31.0843 69.2541 30.9354 69.1155 30.9041C68.8035 30.8257 68.4153 30.8727 68.1172 30.9668C67.6251 31.1313 66.9457 31.4526 66.9596 32.1265L66.9665 32.1422Z" fill="#FE6788"/>
<path d="M74.8271 31.5322L74.7509 37.4564C74.7509 37.7229 74.7994 37.8717 75.0212 37.9971C75.2638 38.1382 75.6382 38.146 75.9016 38.099C76.2482 38.0441 76.6156 37.9344 76.9137 37.7072C77.087 37.574 77.4198 37.3389 77.4198 37.0646L77.496 31.1404C77.496 30.8739 77.4475 30.725 77.2257 30.5997C76.983 30.4586 76.6087 30.4508 76.3453 30.4978C75.9987 30.5526 75.6312 30.6623 75.3332 30.8896C75.1599 31.0228 74.8271 31.2579 74.8271 31.5322Z" fill="#FE6788"/>
<path d="M55.9581 49.8297C59.6183 54.5707 64.9215 57.2115 70.4049 57.8071C75.8883 58.4026 81.9679 56.5689 86.862 53.215C89.6696 51.2873 92.1583 48.8502 94.3281 46.0683C94.7995 45.4571 93.926 45.1123 93.5309 45.0966C92.8168 45.0574 92.0682 45.3944 91.5968 45.9978C88.3317 50.198 84.0545 53.5833 79.2712 55.1349C74.488 56.6865 69.6632 56.2712 65.2543 54.0535C62.7101 52.7762 60.4571 50.9268 58.6201 48.5602C57.9685 47.7217 55.2164 48.8815 55.9512 49.8297H55.9581Z" fill="#FE6788"/>
</g>
<path fill-rule="evenodd" clip-rule="evenodd" d="M11.8943 72.908C16.4096 70.6213 20.8794 64.8858 24.5879 69.1285C28.7818 73.9267 28.149 82.4482 25.2155 87.9555C22.5518 92.9561 16.9571 94.523 11.8943 92.9585C6.87211 91.4066 2.54538 86.8908 2.37486 80.8782C2.23054 75.7893 8.00139 74.8796 11.8943 72.908Z" fill="#F1F4E7"/>
<path fill-rule="evenodd" clip-rule="evenodd" d="M15.6651 70.5636C20.5981 68.0653 25.4814 61.7993 29.5329 66.4345C34.1148 71.6765 33.4235 80.9863 30.2186 87.003C27.3085 92.4662 21.1962 94.178 15.6651 92.4688C10.1784 90.7733 5.45142 85.8398 5.26513 79.271C5.10745 73.7113 11.4121 72.7175 15.6651 70.5636Z" stroke="#FEA439" stroke-width="2"/>
<g clip-path="url(#clip1_101_112)">
<path d="M24.3807 74.0386C24.3685 74.7462 24.3685 75.4539 24.3807 76.1616C24.3807 76.2552 24.3636 76.3075 24.2857 76.3516C24.2004 76.4012 24.0689 76.4039 23.9763 76.3874C23.8545 76.3681 23.7254 76.3296 23.6207 76.2497C23.5573 76.2029 23.4428 76.1203 23.4428 76.0239C23.4282 75.2667 23.4282 74.5067 23.4428 73.7494C23.4428 73.6668 23.5768 73.6145 23.6255 73.6035C23.7352 73.576 23.8716 73.5925 23.9763 73.6255C24.1493 73.6834 24.388 73.7963 24.3831 74.0331L24.3807 74.0386Z" fill="#FFB154"/>
<path d="M21.6186 73.8242L21.6454 75.9059C21.6454 75.9996 21.6283 76.0519 21.5504 76.0959C21.4651 76.1455 21.3336 76.1483 21.241 76.1317C21.1192 76.1125 20.9901 76.0739 20.8854 75.9941C20.8245 75.9472 20.7076 75.8646 20.7076 75.7683L20.6808 73.6865C20.6808 73.5929 20.6978 73.5406 20.7758 73.4965C20.861 73.447 20.9926 73.4442 21.0851 73.4607C21.2069 73.48 21.336 73.5186 21.4408 73.5984C21.5017 73.6452 21.6186 73.7278 21.6186 73.8242Z" fill="#FFB154"/>
<path d="M28.2489 80.2539C26.9627 81.9198 25.0993 82.8477 23.1725 83.057C21.2456 83.2663 19.1094 82.6219 17.3896 81.4434C16.4031 80.766 15.5286 79.9097 14.7661 78.9321C14.6005 78.7173 14.9074 78.5962 15.0462 78.5907C15.2971 78.5769 15.5602 78.6953 15.7259 78.9073C16.8732 80.3833 18.3761 81.5728 20.0569 82.118C21.7377 82.6632 23.4331 82.5173 24.9823 81.738C25.8763 81.2892 26.668 80.6394 27.3135 79.8078C27.5425 79.5131 28.5095 79.9207 28.2513 80.2539H28.2489Z" fill="#FFB154"/>
</g>
<path fill-rule="evenodd" clip-rule="evenodd" d="M47.241 109.686C50.0027 105.444 50.9971 98.2412 56.3323 100.055C62.3659 102.106 66.0882 109.797 66.309 116.033C66.5095 121.695 62.4529 125.855 57.2877 127.038C52.1638 128.211 46.1567 126.471 42.9964 121.353C40.3216 117.021 44.8599 113.343 47.241 109.686Z" fill="#F1F4E7"/>
<path fill-rule="evenodd" clip-rule="evenodd" d="M49.3297 105.768C52.3469 101.134 53.4333 93.2643 59.262 95.2455C65.8538 97.4861 69.9204 105.889 70.1616 112.702C70.3806 118.888 65.9488 123.432 60.3057 124.725C54.7079 126.006 48.1451 124.106 44.6925 118.514C41.7702 113.782 46.7284 109.763 49.3297 105.768Z" stroke="#FEA439" stroke-width="2"/>
<g clip-path="url(#clip2_101_112)">
<path d="M58.6133 104.408C58.9574 105.026 59.3119 105.639 59.6771 106.245C59.724 106.326 59.7354 106.38 59.6901 106.457C59.6411 106.543 59.5287 106.611 59.4403 106.643C59.3252 106.688 59.1942 106.719 59.0635 106.702C58.9853 106.693 58.8448 106.679 58.7965 106.596C58.4044 105.948 58.0236 105.29 57.6568 104.628C57.6154 104.556 57.7052 104.444 57.7418 104.41C57.8229 104.331 57.9492 104.277 58.0564 104.253C58.235 104.216 58.4982 104.195 58.6126 104.402L58.6133 104.408Z" fill="#FFB154"/>
<path d="M56.1156 105.606L57.1819 107.394C57.2288 107.475 57.2403 107.529 57.1949 107.606C57.146 107.692 57.0335 107.76 56.9451 107.792C56.8301 107.837 56.699 107.868 56.5684 107.852C56.4922 107.842 56.3496 107.829 56.3013 107.745L55.235 105.957C55.1881 105.876 55.1767 105.822 55.2221 105.745C55.271 105.659 55.3835 105.591 55.4718 105.559C55.5869 105.515 55.718 105.483 55.8486 105.5C55.9248 105.51 56.0673 105.523 56.1156 105.606Z" fill="#FFB154"/>
<path d="M65.0752 107.848C64.7969 109.934 63.6492 111.671 62.0866 112.818C60.524 113.964 58.3523 114.477 56.2735 114.319C55.0803 114.227 53.8944 113.924 52.7448 113.46C52.4938 113.357 52.6988 113.099 52.8162 113.024C53.0264 112.887 53.3134 112.857 53.563 112.958C55.2954 113.66 57.1921 113.937 58.9199 113.566C60.6476 113.196 62.0417 112.22 62.992 110.769C63.5407 109.933 63.9002 108.974 64.0422 107.931C64.0927 107.561 65.1338 107.429 65.0773 107.847L65.0752 107.848Z" fill="#FFB154"/>
</g>
<path fill-rule="evenodd" clip-rule="evenodd" d="M120.697 101.368C117.935 97.1263 116.941 89.9231 111.606 91.7366C105.572 93.7875 101.85 101.479 101.629 107.715C101.429 113.377 105.485 117.537 110.65 118.72C115.774 119.893 121.781 118.153 124.942 113.035C127.617 108.703 123.078 105.025 120.697 101.368Z" fill="#F1F4E7"/>
<path fill-rule="evenodd" clip-rule="evenodd" d="M118.608 97.4492C115.591 92.8155 114.505 84.9459 108.676 86.9272C102.084 89.1678 98.0176 97.571 97.7764 104.384C97.5574 110.57 101.989 115.114 107.632 116.406C113.23 117.688 119.793 115.787 123.246 110.196C126.168 105.463 121.21 101.444 118.608 97.4492Z" stroke="#FEA439" stroke-width="2"/>
<g clip-path="url(#clip3_101_112)">
<path d="M109.325 96.0898C108.981 96.7083 108.626 97.3207 108.261 97.927C108.214 98.0081 108.203 98.0619 108.248 98.1391C108.297 98.2247 108.409 98.293 108.498 98.325C108.613 98.3694 108.744 98.4007 108.875 98.3841C108.953 98.3753 109.093 98.3612 109.142 98.2778C109.534 97.6298 109.915 96.9721 110.281 96.3095C110.323 96.238 110.233 96.1256 110.196 96.0916C110.115 96.0129 109.989 95.9588 109.882 95.9349C109.703 95.8983 109.44 95.8764 109.325 96.0838L109.325 96.0898Z" fill="#FFB154"/>
<path d="M111.822 97.2882L110.756 99.0763C110.709 99.1574 110.698 99.2112 110.743 99.2884C110.792 99.374 110.905 99.4423 110.993 99.4744C111.108 99.5187 111.239 99.55 111.37 99.5334C111.446 99.5234 111.588 99.5105 111.637 99.4271L112.703 97.639C112.75 97.558 112.761 97.5042 112.716 97.427C112.667 97.3414 112.555 97.2731 112.466 97.241C112.351 97.1966 112.22 97.1653 112.089 97.1819C112.013 97.1919 111.871 97.2048 111.822 97.2882Z" fill="#FFB154"/>
<path d="M102.863 99.5301C103.141 101.616 104.289 103.353 105.852 104.5C107.414 105.646 109.586 106.159 111.665 106.001C112.858 105.909 114.044 105.606 115.193 105.142C115.444 105.039 115.239 104.781 115.122 104.706C114.912 104.569 114.625 104.539 114.375 104.64C112.643 105.342 110.746 105.619 109.018 105.248C107.29 104.878 105.896 103.902 104.946 102.451C104.397 101.615 104.038 100.656 103.896 99.6128C103.845 99.2431 102.804 99.1112 102.861 99.5289L102.863 99.5301Z" fill="#FFB154"/>
</g>
<defs>
<clipPath id="clip0_101_112">
<rect width="38.6334" height="27.4427" fill="white" transform="translate(55.8331 30.4814)"/>
</clipPath>
<clipPath id="clip1_101_112">
<rect width="13.5754" height="9.64309" fill="white" transform="matrix(-1 0 0 1 28.2928 73.4551)"/>
</clipPath>
<clipPath id="clip2_101_112">
<rect width="13.5754" height="9.64309" fill="white" transform="matrix(-0.865407 0.501069 0.501069 0.865407 61.7065 101.943)"/>
</clipPath>
<clipPath id="clip3_101_112">
<rect width="13.5754" height="9.64309" fill="white" transform="translate(106.232 93.6245) rotate(30.0708)"/>
</clipPath>
</defs>
</svg>
