<svg width="176" height="156" viewBox="0 0 176 156" fill="none" xmlns="http://www.w3.org/2000/svg">
<path fill-rule="evenodd" clip-rule="evenodd" d="M109.254 16.6427C101.871 12.9035 94.5621 3.52519 88.4983 10.4626C81.6406 18.3082 82.6753 32.2422 87.4721 41.2473C91.8276 49.4241 100.976 51.9862 109.254 49.4281C117.466 46.8904 124.541 39.5065 124.82 29.675C125.056 21.3539 115.62 19.8664 109.254 16.6427Z" fill="#F1F4E7"/>
<path fill-rule="evenodd" clip-rule="evenodd" d="M103.088 12.8094C95.0221 8.72436 87.0371 -1.52145 80.4123 6.05771C72.9203 14.6291 74.0507 29.852 79.2912 39.6901C84.0496 48.6232 94.044 51.4224 103.088 48.6276C112.06 45.8552 119.789 37.7882 120.094 27.0473C120.351 17.9564 110.042 16.3314 103.088 12.8094Z" stroke="#19C1B6" stroke-width="2"/>
<g clip-path="url(#clip0_101_68)">
<path d="M88.8372 18.4917C88.8571 19.6488 88.8571 20.806 88.8372 21.9631C88.8372 22.1162 88.8651 22.2018 88.9926 22.2738C89.132 22.3549 89.3471 22.3594 89.4984 22.3324C89.6976 22.3008 89.9087 22.2378 90.08 22.1072C90.1835 22.0307 90.3707 21.8956 90.3707 21.738C90.3946 20.4998 90.3946 19.2571 90.3707 18.0189C90.3707 17.8839 90.1516 17.7983 90.072 17.7803C89.8927 17.7353 89.6697 17.7623 89.4984 17.8163C89.2156 17.9109 88.8253 18.0955 88.8332 18.4827L88.8372 18.4917Z" fill="#19C1B6"/>
<path d="M93.3537 18.1412L93.3099 21.5451C93.3099 21.6982 93.3378 21.7837 93.4653 21.8558C93.6047 21.9368 93.8198 21.9413 93.9711 21.9143C94.1703 21.8828 94.3814 21.8197 94.5527 21.6892C94.6522 21.6126 94.8434 21.4775 94.8434 21.32L94.8872 17.916C94.8872 17.763 94.8594 17.6774 94.7319 17.6054C94.5925 17.5243 94.3774 17.5198 94.226 17.5468C94.0269 17.5784 93.8158 17.6414 93.6445 17.772C93.5449 17.8485 93.3537 17.9836 93.3537 18.1412Z" fill="#19C1B6"/>
<path d="M82.5122 28.6544C84.6152 31.3784 87.6623 32.8958 90.8129 33.238C93.9635 33.5802 97.4567 32.5266 100.269 30.5995C101.882 29.4919 103.312 28.0916 104.558 26.4932C104.829 26.142 104.327 25.9439 104.1 25.9349C103.69 25.9124 103.26 26.106 102.989 26.4527C101.113 28.866 98.6556 30.8111 95.9072 31.7026C93.1589 32.5941 90.3867 32.3555 87.8535 31.0813C86.3917 30.3473 85.0972 29.2847 84.0417 27.925C83.6673 27.4432 82.086 28.1096 82.5082 28.6544H82.5122Z" fill="#19C1B6"/>
</g>
<path fill-rule="evenodd" clip-rule="evenodd" d="M25.1077 110.287C29.6235 103.352 31.2495 91.5734 39.9733 94.5387C49.8392 97.8922 55.9257 110.469 56.2867 120.666C56.6145 129.924 49.9814 136.726 41.5354 138.66C33.1572 140.578 23.3347 137.733 18.1672 129.365C13.7935 122.282 21.2143 116.266 25.1077 110.287Z" fill="#F1F4E7"/>
<path fill-rule="evenodd" clip-rule="evenodd" d="M28.5229 103.88C33.4565 96.3029 35.2329 83.4351 44.7637 86.6747C55.5422 90.3384 62.1917 104.079 62.5861 115.219C62.9442 125.334 55.6976 132.764 46.4703 134.877C37.3171 136.973 26.586 133.865 20.9404 124.722C16.1621 116.984 24.2694 110.412 28.5229 103.88Z" stroke="#19C1B6" stroke-width="2"/>
<g clip-path="url(#clip1_101_68)">
<path d="M43.7032 101.657C44.2657 102.668 44.8456 103.67 45.4426 104.661C45.5193 104.794 45.538 104.882 45.4638 105.008C45.3838 105.148 45.1999 105.259 45.0554 105.312C44.8673 105.384 44.653 105.436 44.4393 105.408C44.3114 105.394 44.0817 105.371 44.0027 105.235C43.3616 104.175 42.7389 103.1 42.1392 102.016C42.0715 101.899 42.2182 101.715 42.2781 101.66C42.4107 101.531 42.6173 101.443 42.7926 101.404C43.0847 101.344 43.515 101.308 43.7021 101.647L43.7032 101.657Z" fill="#19C1B6"/>
<path d="M39.619 103.617L41.3625 106.54C41.4392 106.673 41.458 106.761 41.3838 106.887C41.3037 107.027 41.1198 107.139 40.9753 107.191C40.7872 107.264 40.5729 107.315 40.3593 107.288C40.2347 107.271 40.0016 107.25 39.9226 107.114L38.1791 104.19C38.1024 104.058 38.0837 103.97 38.1579 103.843C38.2379 103.703 38.4218 103.592 38.5663 103.539C38.7545 103.467 38.9687 103.416 39.1824 103.443C39.3069 103.459 39.5401 103.48 39.619 103.617Z" fill="#19C1B6"/>
<path d="M54.2692 107.283C53.8141 110.694 51.9375 113.534 49.3824 115.408C46.8273 117.283 43.2764 118.122 39.8772 117.863C37.9262 117.713 35.9871 117.217 34.1073 116.459C33.6969 116.291 34.0319 115.868 34.2239 115.746C34.5677 115.521 35.037 115.473 35.4451 115.638C38.2778 116.786 41.3793 117.238 44.2044 116.632C47.0295 116.027 49.309 114.431 50.8628 112.059C51.7601 110.692 52.348 109.123 52.5801 107.418C52.6627 106.813 54.365 106.597 54.2726 107.281L54.2692 107.283Z" fill="#19C1B6"/>
</g>
<path fill-rule="evenodd" clip-rule="evenodd" d="M150.893 90.7487C146.377 83.8133 144.751 72.035 136.027 75.0003C126.161 78.3538 120.075 90.9309 119.714 101.127C119.386 110.386 126.019 117.187 134.465 119.121C142.843 121.04 152.666 118.195 157.833 109.826C162.207 102.744 154.786 96.7281 150.893 90.7487Z" fill="#F1F4E7"/>
<path fill-rule="evenodd" clip-rule="evenodd" d="M147.477 84.3415C142.544 76.7646 140.767 63.8968 131.237 67.1364C120.458 70.8001 113.809 84.5405 113.414 95.6803C113.056 105.795 120.303 113.226 129.53 115.339C138.683 117.435 149.414 114.327 155.06 105.184C159.838 97.4459 151.731 90.874 147.477 84.3415Z" stroke="#19C1B6" stroke-width="2"/>
<g clip-path="url(#clip2_101_68)">
<path d="M132.297 82.1183C131.735 83.1297 131.155 84.1311 130.558 85.1225C130.481 85.255 130.462 85.343 130.536 85.4692C130.616 85.6092 130.8 85.7209 130.945 85.7734C131.133 85.8459 131.347 85.8971 131.561 85.8699C131.689 85.8556 131.919 85.8325 131.998 85.6961C132.639 84.6365 133.261 83.5611 133.861 82.4776C133.929 82.3607 133.782 82.1769 133.722 82.1214C133.59 81.9926 133.383 81.9042 133.208 81.8652C132.916 81.8053 132.485 81.7695 132.298 82.1085L132.297 82.1183Z" fill="#19C1B6"/>
<path d="M136.381 84.078L134.638 87.0018C134.561 87.1343 134.542 87.2223 134.616 87.3485C134.697 87.4885 134.88 87.6001 135.025 87.6526C135.213 87.7251 135.427 87.7763 135.641 87.7491C135.766 87.7328 135.999 87.7117 136.078 87.5753L137.821 84.6515C137.898 84.519 137.917 84.431 137.842 84.3048C137.762 84.1648 137.578 84.0532 137.434 84.0007C137.246 83.9282 137.032 83.877 136.818 83.9041C136.693 83.9205 136.46 83.9416 136.381 84.078Z" fill="#19C1B6"/>
<path d="M121.731 87.7439C122.186 91.1551 124.063 93.995 126.618 95.8698C129.173 97.7446 132.724 98.5832 136.123 98.3245C138.074 98.1742 140.013 97.6789 141.893 96.9203C142.303 96.7521 141.968 96.3292 141.776 96.2077C141.433 95.9826 140.963 95.9346 140.555 96.0989C137.722 97.2474 134.621 97.6993 131.796 97.0937C128.971 96.4882 126.691 94.8926 125.137 92.5205C124.24 91.1529 123.652 89.5847 123.42 87.8791C123.338 87.2746 121.635 87.0589 121.728 87.742L121.731 87.7439Z" fill="#19C1B6"/>
</g>
<path d="M81.9236 77.6269C81.9236 83.3625 77.1732 87.6897 71.9445 87.6897C66.7837 87.6897 63.0295 83.4339 63.0295 77.6269C63.0295 74.7485 64.1035 72.4743 65.8088 70.9162C67.5195 69.353 69.8953 68.4843 72.5337 68.4843C75.1715 68.4843 77.5172 69.3526 79.1986 70.9135C80.8752 72.4699 81.9236 74.7443 81.9236 77.6269Z" stroke="#19C1B6"/>
<path d="M74.7658 73.1546C74.7658 73.1546 77.6954 73.2233 78.6161 74.3553C79.4401 75.3683 79.2173 78.2682 79.2173 78.2682" stroke="#19C1B6" stroke-width="0.5"/>
<defs>
<clipPath id="clip0_101_68">
<rect width="22.1976" height="15.7678" fill="white" transform="translate(82.4403 17.5374)"/>
</clipPath>
<clipPath id="clip1_101_68">
<rect width="22.1976" height="15.7678" fill="white" transform="matrix(-0.865407 0.501069 0.501069 0.865407 48.761 97.6257)"/>
</clipPath>
<clipPath id="clip2_101_68">
<rect width="22.1976" height="15.7678" fill="white" transform="translate(127.239 78.0872) rotate(30.0708)"/>
</clipPath>
</defs>
</svg>
