<svg width="241" height="24" viewBox="0 0 241 24" fill="none" xmlns="http://www.w3.org/2000/svg">
  <path d="M0 2.11314C9.72704 2.11314 14.4894 7.21137 19.5327 12.6104C24.5536 17.9875 29.7458 23.5464 40.0376 23.5464C50.3294 23.5464 55.5217 17.9875 60.5425 12.6104C65.5858 7.21137 70.3482 2.11314 80.0753 2.11314C89.8023 2.11314 94.5647 7.21137 99.608 12.6104C104.629 17.9875 109.821 23.5464 120.113 23.5464C130.405 23.5464 135.597 17.9875 140.618 12.6104C145.661 7.21137 150.423 2.11314 160.151 2.11314C169.878 2.11314 174.64 7.21137 179.683 12.6104C184.704 17.9875 189.896 23.5464 200.188 23.5464C210.48 23.5464 215.672 17.9875 220.693 12.6104C225.736 7.21137 230.499 2.11314 240.226 2.11314V0.546387C229.934 0.546387 224.742 6.10524 219.721 11.4824C214.678 16.8814 209.915 21.9796 200.188 21.9796C190.461 21.9796 185.699 16.8814 180.655 11.4824C175.635 6.10524 170.442 0.546387 160.151 0.546387C149.859 0.546387 144.666 6.10524 139.646 11.4824C134.602 16.8814 129.84 21.9796 120.113 21.9796C110.386 21.9796 105.623 16.8814 100.58 11.4824C95.5565 6.10524 90.3642 0.546387 80.0724 0.546387C69.7807 0.546387 64.5884 6.10524 59.5676 11.4824C54.5242 16.8814 49.7619 21.9796 40.0348 21.9796C30.3078 21.9796 25.5454 16.8814 20.5021 11.4824C15.484 6.10524 10.2918 0.546387 0 0.546387V2.11314Z" fill="#19C1B6"/>
</svg>
